HIERARCHY
ROOT hip
{
	OFFSET 0.000000 0.000000 0.000000 
	CHANNELS 6 Xposition Yposition Zposition Xrotation Zrotation Yrotation
	JOINT abdomen
	{
		OFFSET 0.000000 3.402643 0.000000 
		CHANNELS 3 Xrotation Zrotation Yrotation
		JOINT chest
		{
			OFFSET 0.000000 8.438565 -0.680529 
			CHANNELS 3 Xrotation Zrotation Yrotation
			JOINT neck
			{
				OFFSET 0.000000 10.207942 -0.272212 
				CHANNELS 3 Xrotation Zrotation Yrotation
				JOINT head
				{
					OFFSET 0.000000 3.130431 0.000000 
					CHANNELS 3 Xrotation Zrotation Yrotation
					End Site
					{
						OFFSET 0.000000 3.130435 0.000000 
					}
				}
			}
			JOINT lCollar
			{
				OFFSET 3.470700 6.669187 -0.816635 
				CHANNELS 3 Yrotation Zrotation Xrotation
				JOINT lShldr
				{
					OFFSET 3.198488 0.000000 0.000000 
					CHANNELS 3 Zrotation Yrotation Xrotation
					JOINT lForeArm
					{
						OFFSET 10.139888 0.000000 0.000000 
						CHANNELS 3 Yrotation Zrotation Xrotation
						JOINT lHand
						{
							OFFSET 8.370511 0.000000 0.000000 
							CHANNELS 3 Zrotation Yrotation Xrotation
							End Site
							{
								OFFSET 4.083176 0.000000 0.000000 
							}
						}
					}
				}
			}
			JOINT rCollar
			{
				OFFSET -3.470700 6.669187 -0.816635 
				CHANNELS 3 Yrotation Zrotation Xrotation
				JOINT rShldr
				{
					OFFSET -3.198488 0.000000 0.000000 
					CHANNELS 3 Zrotation Yrotation Xrotation
					JOINT rForeArm
					{
						OFFSET -10.139888 0.000000 0.000000 
						CHANNELS 3 Yrotation Zrotation Xrotation
						JOINT rHand
						{
							OFFSET -8.370511 0.000000 0.000000 
							CHANNELS 3 Zrotation Yrotation Xrotation
							End Site
							{
								OFFSET -4.083176 0.000000 0.000000 
							}
						}
					}
				}
			}
		}
	}
	JOINT lThigh
	{
		OFFSET 5.308129 -1.633274 1.361059 
		CHANNELS 3 Xrotation Zrotation Yrotation
		JOINT lShin
		{
			OFFSET -2.041588 -20.007561 0.000000 
			CHANNELS 3 Xrotation Zrotation Yrotation
			JOINT lFoot
			{
				OFFSET 0.000000 -19.190928 -1.224953 
				CHANNELS 3 Xrotation Yrotation Zrotation
				End Site
				{
					OFFSET 0.000000 -2.449906 4.627600 
				}
			}
		}
	}
	JOINT rThigh
	{
		OFFSET -5.308129 -1.633274 1.361059 
		CHANNELS 3 Xrotation Zrotation Yrotation
		JOINT rShin
		{
			OFFSET 2.041588 -20.007561 0.000000 
			CHANNELS 3 Xrotation Zrotation Yrotation
			JOINT rFoot
			{
				OFFSET 0.000000 -19.190928 -1.224953 
				CHANNELS 3 Xrotation Yrotation Zrotation
				End Site
				{
					OFFSET 0.000000 -2.449906 4.627600 
				}
			}
		}
	}
}
MOTION
Frames: 13
Frame Time: 0.033333
0.154271 49.169857 0.675238 -0.912989 0.908087 -0.918008 0.000000 0.000000 0.000000 -0.904008 -1.171868 -0.205235 -0.700857 1.121884 2.608069 9.495745 -1.588406 3.741502 -3.521967 9.154817 6.304141 -11.438839 8.447082 -38.992722 -22.925522 4.993894 37.486393 9.489747 6.830282 -8.630877 3.089181 -14.089146 8.026228 18.499554 0.725206 -44.852184 16.820940 -5.009381 44.994274 1.941932 -6.911418 -8.426507 0.243712 5.459312 7.708228 9.506223 -3.133883 -5.576179 -4.779871 0.395946 -2.441328 0.878332 -10.134940 -16.551716 8.952084 1.305286 2.429134 -4.743721 0.074136 -0.530717 
0.096166 49.169857 0.690191 -1.067092 0.898352 -0.791072 0.000000 0.000000 0.000000 0.324315 -1.474562 -0.459335 -0.941848 1.033175 3.545578 9.472946 -1.236407 4.502799 -3.521967 9.154817 6.304141 -10.747581 7.254455 -39.437572 -23.036909 4.999409 37.001911 7.988330 6.711295 -8.552329 3.089181 -14.089146 8.026228 18.786070 2.237437 -45.006046 17.171364 -5.011247 44.996597 1.688396 -7.036917 -8.445321 0.418551 5.528163 7.778583 9.487550 -3.115011 -5.710212 -4.858219 0.366033 -2.390812 1.022669 -10.021676 -16.517054 9.024101 1.275200 2.177364 -4.955582 0.011576 -0.610916 
0.027664 49.167965 0.708686 -1.229467 0.790967 -0.634705 0.000000 0.000000 0.000000 1.535110 -1.591653 -0.772000 -1.084545 1.344155 4.132011 9.284216 -1.624006 5.255941 -3.521967 9.154817 6.304141 -9.929320 5.938316 -39.853416 -23.106758 4.995151 37.029331 8.243367 6.947120 -8.569607 3.089181 -14.089146 8.026228 18.791327 3.836082 -45.010101 17.487450 -5.005643 44.999767 1.265189 -7.760222 -8.511750 0.545060 5.762853 7.930964 9.560504 -3.152939 -5.970455 -4.815649 0.347693 -2.419657 1.258952 -9.861629 -16.529467 8.982254 1.324737 2.051310 -4.917139 0.017761 -0.586955 
-0.020221 49.161346 0.711000 -1.306069 0.849579 -0.488228 0.000000 0.000000 0.000000 2.661118 -1.855155 -1.055399 -1.340948 2.024706 4.602597 9.141438 -2.369341 6.098614 -3.521967 9.154817 6.304141 -8.977439 4.253422 -40.600517 -23.159714 5.000048 36.367378 9.113219 7.263055 -8.608203 3.089181 -14.089146 8.026228 18.695620 5.770467 -45.009220 17.837463 -5.007440 44.999973 1.149174 -7.945291 -8.534537 0.595072 5.790334 7.951742 9.597840 -3.182026 -6.140504 -4.696672 0.348280 -2.440075 1.259232 -9.922021 -16.633120 9.354506 1.392391 2.152010 -5.006137 0.036020 -0.558022 
-0.071330 49.165592 0.708303 -1.451438 0.898417 -0.390577 0.000000 0.000000 0.000000 3.770069 -2.128334 -1.329385 -1.568190 2.576889 5.288822 9.083813 -2.762372 7.019532 -3.521967 9.154817 6.304141 -7.875165 2.269136 -41.283428 -23.164808 4.995908 34.531796 9.675856 8.124928 -8.608434 3.089181 -14.089146 8.026228 18.362432 7.844646 -45.006680 18.063400 -5.012766 44.994312 1.030898 -7.992558 -8.547252 0.760862 5.776872 7.947976 9.509522 -3.164146 -6.192215 -4.700646 0.361893 -2.391817 1.354563 -9.943068 -16.716396 9.531601 1.411872 2.094058 -5.103838 0.049154 -0.584386 
-0.136142 49.170807 0.705739 -1.605285 0.839835 -0.253879 0.000000 0.000000 0.000000 4.730763 -2.127980 -1.690826 -1.923397 2.962046 6.033964 9.278486 -2.815002 7.880239 -3.521967 9.154817 6.304141 -6.951766 0.025845 -41.930576 -23.163490 4.992615 33.254742 10.081172 9.081926 -8.599864 3.089181 -14.089146 8.026228 17.738947 9.942587 -45.007370 18.255972 -5.007589 45.000439 0.427321 -8.716269 -8.617812 0.995154 5.905414 8.032635 9.315382 -3.143002 -6.392619 -4.662604 0.367601 -2.378603 1.492978 -9.801609 -16.707699 9.616755 1.422526 1.874542 -5.143243 0.049826 -0.562904 
-0.183454 49.167496 0.688713 -1.555105 0.869137 -0.156232 0.000000 0.000000 0.000000 5.238046 -2.176543 -1.896131 -2.091551 3.657842 6.527135 9.259992 -3.002591 8.654154 -3.521967 9.154817 6.304141 -6.048041 -2.559951 -42.631077 -23.186235 4.995440 34.134735 10.330221 8.367976 -8.634592 3.089181 -14.089146 8.026228 17.090630 12.136122 -45.003002 18.502760 -5.003523 44.999268 0.399286 -9.383167 -8.660159 0.937279 5.946280 8.066120 9.284857 -3.193552 -6.540076 -4.503408 0.355630 -2.393507 1.386475 -9.814381 -16.715956 9.752356 1.451663 1.834578 -5.152210 0.009664 -0.537747 
-0.228935 49.175060 0.685468 -1.562184 0.927734 0.019687 0.000000 0.000000 0.000000 5.609114 -2.322417 -2.257962 -2.378288 4.187581 6.982005 9.248392 -3.209013 9.330641 -3.521967 9.154817 6.304141 -5.167578 -5.260124 -43.181881 -23.188128 4.997287 35.364681 10.640203 7.814603 -8.663397 3.089181 -14.089146 8.026228 16.714708 14.646438 -45.011181 18.763292 -5.013262 44.999237 0.659546 -10.006096 -8.713024 0.867538 5.971041 8.049455 9.339646 -3.192910 -6.787449 -4.401341 0.386438 -2.517773 1.443603 -9.819300 -16.757343 9.711672 1.490284 1.708312 -5.221514 0.044356 -0.544126 
-0.290288 49.177910 0.716908 -1.776929 0.810547 0.029432 0.000000 0.000000 0.000000 5.970740 -2.078051 -2.531173 -2.787894 4.037369 7.519097 9.288317 -3.012750 9.729926 -3.521967 9.154817 6.304141 -4.798407 -8.140238 -43.794220 -23.139744 5.001785 35.068314 10.547071 8.708593 -8.627381 3.089181 -14.089146 8.026228 16.100681 17.458782 -45.007126 19.036968 -5.009801 44.993752 0.705677 -10.226487 -8.727849 1.083423 6.199081 8.241002 9.467445 -3.222386 -7.021727 -4.473122 0.404806 -2.499704 1.786574 -9.608224 -16.717495 9.527006 1.500173 1.572697 -5.289672 0.046213 -0.564685 
-0.325675 49.174114 0.705932 -1.814116 0.839841 0.156376 0.000000 0.000000 0.000000 5.986000 -1.882252 -2.960594 -3.320876 3.743816 7.868496 9.378368 -2.895883 9.885473 -3.521967 9.154817 6.304141 -4.694621 -11.291899 -44.581852 -23.074427 4.995058 34.841698 9.939013 9.387961 -8.597773 3.089181 -14.089146 8.026228 15.496741 20.371593 -45.007168 19.209003 -5.010790 45.002171 0.536681 -9.451086 -8.661786 1.113130 6.201209 8.171809 9.390872 -3.163565 -7.110481 -4.289574 0.383516 -2.571388 1.747607 -9.608596 -16.746218 9.714458 1.510189 1.543893 -5.240118 0.017468 -0.555784 
-0.351086 49.179790 0.694262 -1.877568 0.917940 0.449317 0.000000 0.000000 0.000000 5.684240 -1.862102 -3.322365 -3.586866 3.775023 7.624252 9.557989 -3.205252 9.732025 -3.521967 9.154817 6.304141 -4.601067 -15.249598 -44.999802 -23.032024 4.993392 35.410557 9.609485 9.426260 -8.584058 3.089181 -14.089146 8.026228 15.628756 23.180059 -45.006607 19.413891 -5.009004 44.994125 -0.549270 -9.352411 -8.674372 1.200763 6.083478 8.043296 9.216386 -3.017545 -7.246321 -4.182070 0.351193 -2.648005 1.765759 -9.654820 -16.770582 9.907747 1.470813 1.268324 -5.368638 0.059755 -0.527025 
-0.383876 49.180252 0.712226 -2.001768 0.956980 0.595946 0.000000 0.000000 0.000000 5.311281 -1.569306 -3.516979 -3.630153 3.437256 7.494453 9.469100 -3.188572 9.457937 -3.521967 9.154817 6.304141 -5.084568 -19.344263 -45.003819 -22.977238 4.992451 35.685810 9.399014 9.218917 -8.593208 3.089181 -14.089146 8.026228 15.523729 26.126629 -45.003239 19.585800 -5.009926 45.001949 -1.117651 -9.492485 -8.704947 1.375717 6.090721 8.080879 9.099235 -3.086058 -7.389154 -4.184837 0.372120 -2.490935 1.902447 -9.635056 -16.771992 10.009472 1.442120 1.017838 -5.563904 0.051360 -0.520287 
-0.421081 49.166538 0.703217 -1.863920 1.015565 0.625248 0.000000 0.000000 0.000000 4.639265 -1.510481 -3.722240 -3.866687 3.254234 7.365983 9.485025 -3.219277 9.262391 -3.521967 9.154817 6.304141 -5.654518 -23.177881 -45.000851 -22.975672 4.994133 36.793747 10.522392 9.705718 -8.591861 3.089181 -14.089146 8.026228 15.810585 29.114590 -45.004009 19.708490 -5.009526 44.995758 -0.801465 -9.343200 -8.692732 1.227615 6.133893 8.135710 9.066015 -3.153722 -7.449663 -4.066719 0.338944 -2.578385 1.647713 -9.641207 -16.786425 10.228097 1.431620 1.018590 -5.630698 -0.006920 -0.524531 
